<?xml version="1.0" encoding="utf-8"?>
<!-- Generator: Adobe Illustrator 24.1.1, SVG Export Plug-In . SVG Version: 6.00 Build 0)  -->
<svg version="1.1" id="Capa_1" xmlns="http://www.w3.org/2000/svg" xmlns:xlink="http://www.w3.org/1999/xlink" x="0px" y="0px"
	 viewBox="0 0 112.6 43" style="enable-background:new 0 0 112.6 43;" xml:space="preserve">
<style type="text/css">
	.st0{fill:#B0B0B0;}
	.st1{fill:#FFFFFF;}
	.st2{fill:#2E2E2E;}
	.st3{fill:#141414;}
	.st4{fill:#444444;}
	.st5{fill:none;stroke:#444444;stroke-width:2;stroke-miterlimit:10;}
</style>
<g>
	<rect class="st0" width="54" height="43"/>
	<circle class="st1" cx="14" cy="10.6" r="6.6"/>
	<polygon class="st2" points="54,29.1 53,28 41,17 30.5,28.5 36,34 40,38 54,38 	"/>
	<polygon class="st2" points="0,42 24,42 20,38 9,27 0,35 	"/>
	<rect y="38" class="st3" width="54" height="5"/>
	<polygon class="st4" points="36,34 25,23 8,38 40,38 	"/>
</g>
<g>
	<rect x="58.6" y="6.2" class="st4" width="30.7" height="6"/>
	<line class="st5" x1="58.6" y1="18.8" x2="98.2" y2="18.8"/>
	<line class="st5" x1="58.6" y1="24.8" x2="103.2" y2="24.8"/>
	<line class="st5" x1="58.6" y1="30.8" x2="94.2" y2="30.8"/>
	<line class="st5" x1="58.6" y1="36.8" x2="99.2" y2="36.8"/>
</g>
</svg>
