<?xml version="1.0" encoding="utf-8"?>
<!-- Generator: Adobe Illustrator 24.1.1, SVG Export Plug-In . SVG Version: 6.00 Build 0)  -->
<svg version="1.1" id="Calque_1" xmlns="http://www.w3.org/2000/svg" xmlns:xlink="http://www.w3.org/1999/xlink" x="0px" y="0px"
	 viewBox="0 0 620.2 183.3" style="enable-background:new 0 0 620.2 183.3;" xml:space="preserve">
<style type="text/css">
	.st0{fill:#F0C313;}
	.st1{fill:#F0C311;}
	.st2{fill:#FFFFFF;}
</style>
<g>
	<path class="st0" d="M407.3,119.1c-4,0-7.5-0.8-10.5-2.5c-3-1.7-5.3-4.1-7.1-7.2v8.7h-13.9v-73h16v29.8c1.7-3,4-5.3,7-7
		c2.9-1.7,6.3-2.5,10.3-2.5c3.3,0,6.3,0.7,9,2c2.8,1.4,5.2,3.3,7.2,5.8c2,2.5,3.6,5.4,4.8,8.6c1.1,3.3,1.7,6.8,1.7,10.6
		c0,3.7-0.6,7.2-1.8,10.5c-1.2,3.3-3,6.2-5.2,8.6c-2.2,2.4-4.8,4.3-7.8,5.6C414.1,118.5,410.8,119.1,407.3,119.1z M402.8,105.6
		c1.9,0,3.5-0.3,5-1c1.5-0.7,2.8-1.6,4-2.8c1.1-1.2,2-2.5,2.7-4.1c0.6-1.6,0.9-3.3,0.9-5.1c0-2.5-0.5-4.7-1.5-6.8
		c-1-2.1-2.4-3.8-4.2-5c-1.8-1.3-3.8-1.9-6.1-1.9c-1.7,0-3.3,0.4-4.8,1.2c-1.5,0.8-2.9,1.9-4.1,3.2c-1.2,1.3-2.2,2.8-2.9,4.5v10.8
		c0.5,1,1.2,2,2,2.9c0.8,0.9,1.7,1.6,2.7,2.2c1,0.6,2,1.1,3.1,1.4S401.7,105.6,402.8,105.6z"/>
	<path class="st1" d="M464.8,119.1c-4.5,0-8.5-0.7-12-2.1c-3.4-1.4-6.4-3.4-8.8-5.9c-2.4-2.5-4.3-5.4-5.5-8.6
		c-1.2-3.2-1.8-6.6-1.8-10.2c0-3.6,0.6-7,1.9-10.3c1.3-3.2,3.1-6.1,5.5-8.6c2.4-2.5,5.3-4.5,8.8-5.9c3.5-1.4,7.5-2.1,12-2.1
		c4.5,0,8.4,0.7,11.9,2.1c3.5,1.4,6.4,3.4,8.8,5.9c2.4,2.5,4.2,5.4,5.5,8.6c1.3,3.2,1.9,6.6,1.9,10.3c0,3.6-0.6,6.9-1.8,10.2
		c-1.2,3.2-3.1,6.1-5.5,8.6c-2.4,2.5-5.4,4.5-8.8,5.9C473.2,118.4,469.2,119.1,464.8,119.1z M453.1,92.3c0,2.6,0.5,4.9,1.5,6.9
		c1,2,2.4,3.6,4.2,4.7c1.7,1.1,3.7,1.7,6,1.7c2.2,0,4.2-0.6,6-1.7c1.8-1.1,3.1-2.7,4.1-4.7s1.5-4.3,1.5-7c0-2.7-0.5-5-1.5-7
		s-2.4-3.6-4.1-4.7c-1.8-1.2-3.8-1.8-6-1.8s-4.2,0.6-5.9,1.7c-1.7,1.1-3.1,2.7-4.2,4.7C453.6,87.3,453.1,89.6,453.1,92.3z"/>
	<path class="st1" d="M525.8,119.1c-4.5,0-8.5-0.7-12-2.1c-3.4-1.4-6.4-3.4-8.8-5.9c-2.4-2.5-4.3-5.4-5.5-8.6
		c-1.2-3.2-1.8-6.6-1.8-10.2c0-3.6,0.6-7,1.9-10.3c1.3-3.2,3.1-6.1,5.5-8.6c2.4-2.5,5.3-4.5,8.8-5.9c3.5-1.4,7.5-2.1,12-2.1
		c4.5,0,8.4,0.7,11.9,2.1c3.5,1.4,6.4,3.4,8.8,5.9c2.4,2.5,4.2,5.4,5.5,8.6c1.3,3.2,1.9,6.6,1.9,10.3c0,3.6-0.6,6.9-1.8,10.2
		c-1.2,3.2-3.1,6.1-5.5,8.6c-2.4,2.5-5.4,4.5-8.8,5.9C534.2,118.4,530.2,119.1,525.8,119.1z M514.1,92.3c0,2.6,0.5,4.9,1.5,6.9
		c1,2,2.4,3.6,4.2,4.7c1.7,1.1,3.7,1.7,6,1.7c2.2,0,4.2-0.6,6-1.7c1.8-1.1,3.1-2.7,4.1-4.7s1.5-4.3,1.5-7c0-2.7-0.5-5-1.5-7
		s-2.4-3.6-4.1-4.7c-1.8-1.2-3.8-1.8-6-1.8s-4.2,0.6-5.9,1.7c-1.7,1.1-3.1,2.7-4.2,4.7C514.6,87.3,514.1,89.6,514.1,92.3z"/>
	<path class="st0" d="M597.1,118.1l-13.7-20.8l-5.6,5.5v15.3h-16v-73h16v42.5l17.8-21.4h16.9l-18.9,22.4l20.5,29.5H597.1z"/>
	<path class="st0" d="M491,82c-1.3-3.2-3.1-6.1-5.5-8.6c-0.4-0.4-0.8-0.8-1.3-1.2c-2.1-1.9-4.6-3.5-7.5-4.7
		c-3.5-1.4-7.4-2.1-11.9-2.1c-4.5,0-8.5,0.7-12,2.1c-2.9,1.2-5.4,2.8-7.5,4.7c-0.4,0.4-0.9,0.8-1.3,1.2c-2.4,2.5-4.2,5.4-5.5,8.6
		c-1.3,3.2-1.9,6.6-1.9,10.3c0,3.6,0.6,6.9,1.8,10.2c1.2,3.2,3.1,6.1,5.5,8.6c2.4,2.5,5.4,4.5,8.8,5.9c3.4,1.4,7.4,2.1,12,2.1
		c4.5,0,8.4-0.7,11.9-2.1c3.5-1.4,6.4-3.4,8.8-5.9c2.4-2.5,4.3-5.4,5.5-8.6c1.2-3.2,1.8-6.6,1.8-10.2C492.9,88.6,492.2,85.2,491,82z
		"/>
	<path class="st0" d="M552,82c-1.3-3.2-3.1-6.1-5.5-8.6c-0.4-0.4-0.8-0.8-1.3-1.2c-2.1-1.9-4.6-3.5-7.5-4.7
		c-3.5-1.4-7.4-2.1-11.9-2.1c-4.5,0-8.5,0.7-12,2.1c-2.9,1.2-5.4,2.8-7.5,4.7c-0.4,0.4-0.9,0.8-1.3,1.2c-2.4,2.5-4.2,5.4-5.5,8.6
		c-1.3,3.2-1.9,6.6-1.9,10.3c0,3.6,0.6,6.9,1.8,10.2c1.2,3.2,3.1,6.1,5.5,8.6c2.4,2.5,5.4,4.5,8.8,5.9c3.4,1.4,7.4,2.1,12,2.1
		c4.5,0,8.4-0.7,11.9-2.1c3.5-1.4,6.4-3.4,8.8-5.9c2.4-2.5,4.3-5.4,5.5-8.6c1.2-3.2,1.8-6.6,1.8-10.2C553.9,88.6,553.2,85.2,552,82z
		"/>
	<path class="st2" d="M491,23.5c-1.3-3.2-3.1-6.1-5.5-8.6c-2.4-2.5-5.3-4.5-8.8-5.9c-3.5-1.4-7.4-2.1-11.9-2.1
		c-4.5,0-8.5,0.7-12,2.1s-6.4,3.4-8.8,5.9c-2.4,2.5-4.2,5.4-5.5,8.6c-1.3,3.2-1.9,6.6-1.9,10.3c0,3.6,0.6,6.9,1.8,10.2
		c0.7,2,1.7,3.8,2.9,5.5c0.8,1.1,1.6,2.2,2.6,3.2c2.4,2.5,5.4,4.5,8.8,5.9c3.4,1.4,7.4,2.1,12,2.1c4.5,0,8.4-0.7,11.9-2.1
		c3.5-1.4,6.4-3.4,8.8-5.9c1-1,1.8-2.1,2.6-3.2c1.2-1.7,2.2-3.5,2.9-5.5c1.2-3.2,1.8-6.6,1.8-10.2C492.9,30.1,492.2,26.7,491,23.5z"
		/>
	<path class="st2" d="M552,23.5c-1.3-3.2-3.1-6.1-5.5-8.6c-1.5-1.6-3.3-2.9-5.2-4.1c-1.1-0.7-2.3-1.3-3.6-1.8
		c-3.5-1.4-7.4-2.1-11.9-2.1c-4.5,0-8.5,0.7-12,2.1c-3.5,1.4-6.4,3.4-8.8,5.9c-2.4,2.5-4.2,5.4-5.5,8.6c-1.3,3.2-1.9,6.6-1.9,10.3
		c0,3.6,0.6,6.9,1.8,10.2c0.7,2,1.7,3.8,2.9,5.5c0.8,1.1,1.6,2.2,2.6,3.2c2.4,2.5,5.4,4.5,8.8,5.9c3.4,1.4,7.4,2.1,12,2.1
		c4.5,0,8.4-0.7,11.9-2.1c3.5-1.4,6.4-3.4,8.8-5.9c2.4-2.5,4.3-5.4,5.5-8.6c1.2-3.2,1.8-6.6,1.8-10.2
		C553.9,30.1,553.2,26.7,552,23.5z"/>
</g>
<g>
	<path class="st2" d="M30.1,119.1c-4.5,0-8.8-0.8-13.1-2.3c-4.2-1.5-7.8-3.7-10.8-6.5l5.6-10c3.1,2.3,6.2,4.1,9.3,5.3
		c3,1.2,5.9,1.8,8.6,1.8c2,0,3.6-0.3,4.8-0.9c1.2-0.6,1.8-1.6,1.8-2.9c0-1-0.4-1.7-1.1-2.3c-0.7-0.5-1.7-1-3-1.5c-1.3-0.5-3-1-5-1.5
		c-4-1.4-7.3-2.7-10-3.9c-2.7-1.2-4.7-2.7-6-4.5c-1.3-1.8-2-4.2-2-7c0-3.5,0.9-6.5,2.7-9.1c1.8-2.6,4.3-4.6,7.5-6.1
		c3.2-1.4,7.1-2.2,11.6-2.2c3.6,0,7.1,0.6,10.6,1.7c3.5,1.1,6.7,3.1,9.7,5.8l-6.3,9.9c-2.9-2.1-5.6-3.6-7.9-4.5
		c-2.4-0.9-4.7-1.4-6.9-1.4c-1.1,0-2.2,0.1-3.1,0.4c-0.9,0.3-1.7,0.7-2.3,1.3c-0.6,0.6-0.9,1.4-0.9,2.5c0,0.9,0.3,1.7,0.9,2.3
		c0.6,0.6,1.5,1.1,2.7,1.6c1.2,0.4,2.8,0.9,4.5,1.4c4.4,1.3,8,2.6,11,3.8c2.9,1.2,5.1,2.8,6.5,4.7c1.4,1.9,2.1,4.4,2.1,7.5
		c0,5.2-1.9,9.3-5.8,12.3C41.9,117.6,36.7,119.1,30.1,119.1z"/>
	<path class="st2" d="M142.7,118.1h-16v-29c0-3.3-0.6-5.8-1.8-7.4c-1.2-1.6-2.9-2.4-5.1-2.4c-2.1,0-4.1,0.9-6.2,2.6
		c-2.1,1.7-3.5,3.9-4.4,6.7v29.5h-16v-29c0-3.4-0.6-5.9-1.9-7.4c-1.3-1.5-2.9-2.3-4.9-2.3c-2.1,0-4.1,0.8-6.2,2.5
		c-2.1,1.6-3.6,3.8-4.5,6.5v29.7h-16V66.2h14.4v8.9c1.9-3.2,4.6-5.6,7.9-7.2c3.3-1.6,7.2-2.5,11.7-2.5c4.3,0,7.6,1,9.9,3
		c2.3,2,3.8,4.3,4.4,7c2-3.2,4.7-5.6,8-7.4c3.3-1.7,7-2.6,11.2-2.6c3.3,0,6,0.6,8,1.8c2,1.2,3.6,2.8,4.7,4.7c1.1,2,1.8,4.1,2.3,6.4
		c0.4,2.3,0.6,4.5,0.6,6.7V118.1z"/>
	<path class="st2" d="M178.2,119.1c-4.5,0-8.5-0.7-12-2.1c-3.4-1.4-6.4-3.4-8.8-5.9c-2.4-2.5-4.3-5.4-5.5-8.6
		c-1.2-3.2-1.8-6.6-1.8-10.2c0-3.6,0.6-7,1.9-10.3c1.3-3.2,3.1-6.1,5.5-8.6c2.4-2.5,5.3-4.5,8.8-5.9c3.5-1.4,7.5-2.1,12-2.1
		c4.5,0,8.4,0.7,11.9,2.1c3.5,1.4,6.4,3.4,8.8,5.9c2.4,2.5,4.2,5.4,5.5,8.6c1.3,3.2,1.9,6.6,1.9,10.3c0,3.6-0.6,6.9-1.8,10.2
		c-1.2,3.2-3.1,6.1-5.5,8.6c-2.4,2.5-5.4,4.5-8.8,5.9C186.6,118.4,182.6,119.1,178.2,119.1z M166.5,92.3c0,2.6,0.5,4.9,1.5,6.9
		c1,2,2.4,3.6,4.2,4.7c1.7,1.1,3.7,1.7,6,1.7c2.2,0,4.2-0.6,6-1.7c1.8-1.1,3.1-2.7,4.1-4.7s1.5-4.3,1.5-7c0-2.7-0.5-5-1.5-7
		s-2.4-3.6-4.1-4.7c-1.8-1.2-3.8-1.8-6-1.8s-4.2,0.6-5.9,1.7c-1.7,1.1-3.1,2.7-4.2,4.7C167,87.3,166.5,89.6,166.5,92.3z"/>
	<path class="st2" d="M239.2,119.1c-4.5,0-8.5-0.7-12-2.1c-3.4-1.4-6.4-3.4-8.8-5.9c-2.4-2.5-4.3-5.4-5.5-8.6
		c-1.2-3.2-1.8-6.6-1.8-10.2c0-3.6,0.6-7,1.9-10.3c1.3-3.2,3.1-6.1,5.5-8.6c2.4-2.5,5.3-4.5,8.8-5.9c3.5-1.4,7.5-2.1,12-2.1
		c4.5,0,8.4,0.7,11.9,2.1c3.5,1.4,6.4,3.4,8.8,5.9c2.4,2.5,4.2,5.4,5.5,8.6c1.3,3.2,1.9,6.6,1.9,10.3c0,3.6-0.6,6.9-1.8,10.2
		c-1.2,3.2-3.1,6.1-5.5,8.6c-2.4,2.5-5.4,4.5-8.8,5.9C247.6,118.4,243.6,119.1,239.2,119.1z M227.5,92.3c0,2.6,0.5,4.9,1.5,6.9
		c1,2,2.4,3.6,4.2,4.7c1.7,1.1,3.7,1.7,6,1.7c2.2,0,4.2-0.6,6-1.7c1.8-1.1,3.1-2.7,4.1-4.7s1.5-4.3,1.5-7c0-2.7-0.5-5-1.5-7
		s-2.4-3.6-4.1-4.7c-1.8-1.2-3.8-1.8-6-1.8s-4.2,0.6-5.9,1.7c-1.7,1.1-3.1,2.7-4.2,4.7C228,87.3,227.5,89.6,227.5,92.3z"/>
	<path class="st2" d="M308.3,115.2c-1.4,0.7-3,1.3-4.8,1.9c-1.8,0.6-3.6,1.1-5.5,1.5c-1.9,0.4-3.8,0.5-5.8,0.5
		c-2.7,0-5.1-0.4-7.3-1.3c-2.2-0.9-4-2.3-5.3-4.4c-1.3-2-2-4.7-2-8.1V78.4H271V66.2h6.7V49.4h16v16.8h10.6v12.2h-10.6v21.2
		c0.1,1.8,0.5,3,1.3,3.8c0.8,0.8,1.9,1.1,3.3,1.1c1.2,0,2.4-0.2,3.6-0.7c1.2-0.4,2.4-0.8,3.4-1.1L308.3,115.2z"/>
	<path class="st2" d="M365.3,118.1h-16v-29c0-3.3-0.7-5.8-2.1-7.4c-1.4-1.6-3.2-2.4-5.5-2.4c-1.2,0-2.6,0.4-4.1,1.1
		c-1.5,0.7-2.9,1.8-4.2,3.1c-1.2,1.4-2.2,2.9-2.8,4.7v29.7h-16v-73h16v30c1.9-3.2,4.5-5.6,7.7-7.2c3.2-1.6,6.7-2.5,10.5-2.5
		c3.5,0,6.4,0.6,8.5,1.8c2.2,1.2,3.8,2.7,5,4.6c1.1,1.9,1.9,4,2.3,6.3c0.4,2.3,0.7,4.6,0.7,6.9V118.1z"/>
	<path class="st0" d="M204.4,140.5c-1.3-3.2-3.1-6.1-5.5-8.6c-0.4-0.4-0.8-0.8-1.3-1.2c-2.1-1.9-4.6-3.5-7.5-4.7
		c-3.5-1.4-7.4-2.1-11.9-2.1c-4.5,0-8.5,0.7-12,2.1c-2.9,1.2-5.4,2.8-7.5,4.7c-0.4,0.4-0.9,0.8-1.3,1.2c-2.4,2.5-4.2,5.4-5.5,8.6
		c-1.3,3.2-1.9,6.6-1.9,10.3c0,3.6,0.6,6.9,1.8,10.2c1.2,3.2,3.1,6.1,5.5,8.6c2.4,2.5,5.4,4.5,8.8,5.9c3.4,1.4,7.4,2.1,12,2.1
		c4.5,0,8.4-0.7,11.9-2.1c3.5-1.4,6.4-3.4,8.8-5.9c2.4-2.5,4.3-5.4,5.5-8.6c1.2-3.2,1.8-6.6,1.8-10.2
		C206.3,147.1,205.6,143.7,204.4,140.5z"/>
	<path class="st0" d="M265.4,140.5c-1.3-3.2-3.1-6.1-5.5-8.6c-0.4-0.4-0.8-0.8-1.3-1.2c-2.1-1.9-4.6-3.5-7.5-4.7
		c-3.5-1.4-7.4-2.1-11.9-2.1c-4.5,0-8.5,0.7-12,2.1c-2.9,1.2-5.4,2.8-7.5,4.7c-0.4,0.4-0.9,0.8-1.3,1.2c-2.4,2.5-4.2,5.4-5.5,8.6
		c-1.3,3.2-1.9,6.6-1.9,10.3c0,3.6,0.6,6.9,1.8,10.2c1.2,3.2,3.1,6.1,5.5,8.6c2.4,2.5,5.4,4.5,8.8,5.9c3.4,1.4,7.4,2.1,12,2.1
		c4.5,0,8.4-0.7,11.9-2.1c3.5-1.4,6.4-3.4,8.8-5.9c2.4-2.5,4.3-5.4,5.5-8.6c1.2-3.2,1.8-6.6,1.8-10.2
		C267.3,147.1,266.6,143.7,265.4,140.5z"/>
	<path class="st2" d="M204.4,82c-1.3-3.2-3.1-6.1-5.5-8.6c-2.4-2.5-5.3-4.5-8.8-5.9c-3.5-1.4-7.4-2.1-11.9-2.1
		c-4.5,0-8.5,0.7-12,2.1s-6.4,3.4-8.8,5.9c-2.4,2.5-4.2,5.4-5.5,8.6c-1.3,3.2-1.9,6.6-1.9,10.3c0,3.6,0.6,6.9,1.8,10.2
		c0.7,2,1.7,3.8,2.9,5.5c0.8,1.1,1.6,2.2,2.6,3.2c2.4,2.5,5.4,4.5,8.8,5.9c3.4,1.4,7.4,2.1,12,2.1c4.5,0,8.4-0.7,11.9-2.1
		c3.5-1.4,6.4-3.4,8.8-5.9c1-1,1.8-2.1,2.6-3.2c1.2-1.7,2.2-3.5,2.9-5.5c1.2-3.2,1.8-6.6,1.8-10.2C206.3,88.6,205.6,85.2,204.4,82z"
		/>
	<path class="st2" d="M265.4,82c-1.3-3.2-3.1-6.1-5.5-8.6c-1.5-1.6-3.3-2.9-5.2-4.1c-1.1-0.7-2.3-1.3-3.6-1.8
		c-3.5-1.4-7.4-2.1-11.9-2.1c-4.5,0-8.5,0.7-12,2.1s-6.4,3.4-8.8,5.9c-2.4,2.5-4.2,5.4-5.5,8.6c-1.3,3.2-1.9,6.6-1.9,10.3
		c0,3.6,0.6,6.9,1.8,10.2c0.7,2,1.7,3.8,2.9,5.5c0.8,1.1,1.6,2.2,2.6,3.2c2.4,2.5,5.4,4.5,8.8,5.9c3.4,1.4,7.4,2.1,12,2.1
		c4.5,0,8.4-0.7,11.9-2.1c3.5-1.4,6.4-3.4,8.8-5.9c2.4-2.5,4.3-5.4,5.5-8.6c1.2-3.2,1.8-6.6,1.8-10.2
		C267.3,88.6,266.6,85.2,265.4,82z"/>
</g>
</svg>
