<?xml version="1.0" encoding="utf-8"?>
<!-- Generator: Adobe Illustrator 24.1.1, SVG Export Plug-In . SVG Version: 6.00 Build 0)  -->
<svg version="1.1" id="Capa_1" xmlns="http://www.w3.org/2000/svg" xmlns:xlink="http://www.w3.org/1999/xlink" x="0px" y="0px"
	 viewBox="0 0 112.6 43" style="enable-background:new 0 0 112.6 43;" xml:space="preserve">
<style type="text/css">
	.st0{fill:#B0B0B0;}
	.st1{fill:#FFFFFF;}
	.st2{fill:#2E2E2E;}
	.st3{fill:#141414;}
	.st4{fill:#444444;}
	.st5{fill:none;stroke:#444444;stroke-width:2;stroke-miterlimit:10;}
</style>
<g>
	<rect x="58.6" class="st0" width="54" height="43"/>
	<circle class="st1" cx="72.6" cy="10.6" r="6.6"/>
	<polygon class="st2" points="112.6,29.1 111.6,28 99.6,17 89.1,28.5 94.5,34 98.6,38 112.6,38 	"/>
	<polygon class="st2" points="58.6,42 82.6,42 78.5,38 67.6,27 58.6,35 	"/>
	<rect x="58.6" y="38" class="st3" width="54" height="5"/>
	<polygon class="st4" points="94.5,34 83.6,23 66.6,38 98.6,38 	"/>
</g>
<g>
	<rect x="7.6" y="6.2" class="st4" width="30.7" height="6"/>
	<line class="st5" x1="7.6" y1="18.8" x2="47.2" y2="18.8"/>
	<line class="st5" x1="7.6" y1="24.8" x2="52.2" y2="24.8"/>
	<line class="st5" x1="7.6" y1="30.8" x2="43.2" y2="30.8"/>
	<line class="st5" x1="7.6" y1="36.8" x2="48.2" y2="36.8"/>
</g>
</svg>
